<?xml version="1.0" encoding="UTF-8"?>
<svg width="80px" height="80px" viewBox="0 0 80 80" version="1.1" xmlns="http://www.w3.org/2000/svg" xmlns:xlink="http://www.w3.org/1999/xlink">
    <!-- Generator: Sketch 46.2 (44496) - http://www.bohemiancoding.com/sketch -->
    <title>Group 13</title>
    <desc>Created with Sketch.</desc>
    <defs>
        <path d="M19.5425396,19.5820118 C19.5425396,18.7646444 16.3496328,17.1679797 15.7987954,15.2425018 C14.7604914,14.8018451 14.0731633,14.6916809 12.9178673,14.5096706 C12.9178673,14.5096706 11.0118725,15.2329223 9.8370778,15.2089735 C8.66228308,15.2329223 6.53692831,14.5096706 6.53692831,14.5096706 C5.0062829,14.7539476 4.52369088,14.8545323 2.72981346,15.7933226 C1.5013974,16.4351486 0.155989341,18.427683 0.116992006,19.6203298 C0.0828693373,20.8081869 0,25.3128401 0,25.3128401 C2.72981346,28.0003222 9.84195247,27.8322466 9.84195247,27.8322466 C9.84195247,27.8322466 10.9192539,27.8322466 12.1817926,27.7364517 C12.1915419,27.3772207 12.2012912,27.0610974 12.2061659,26.8216101 C12.2451632,25.3463683 13.90255,21.8523516 15.4088221,21.0668332 C17.3781875,20.0418275 19.5425396,20.3993793 19.5425396,19.5820118 Z" id="path-1"></path>
        <path d="M9.84077894,12.1185331 C12.9751898,12.1185331 15.5148912,9.62307535 15.5148912,6.54326853 C15.5148912,3.4634617 12.9751898,0.968003913 9.84077894,0.968003913 C6.70636812,0.968003913 4.16666667,3.4634617 4.16666667,6.54326853 C4.17154133,9.62307535 6.71124279,12.1185331 9.84077894,12.1185331 L9.84077894,12.1185331 Z" id="path-2"></path>
        <path d="M47.186799,15.1639826 C45.3929216,14.2299821 44.9103295,14.1246077 43.3796841,13.8803306 C43.3796841,13.8803306 41.2543294,14.6035823 40.0795346,14.5796336 C38.9047399,14.6035823 36.9987452,13.8803306 36.9987452,13.8803306 C35.8434491,14.0671307 35.1561211,14.1725051 34.117817,14.6131618 C33.562105,16.5434295 30.3740728,18.0757809 30.3740728,18.9526719 C30.3740728,19.8295628 32.5384249,19.4124875 34.5077904,20.4374932 C36.0189371,21.2230116 37.6763239,24.7170283 37.7153212,26.1779009 C37.7250705,26.4173882 37.7299452,26.7383012 37.7396945,27.0927424 C39.0022332,27.1885374 40.0795346,27.1885374 40.0795346,27.1885374 C40.0795346,27.1885374 46.6795603,27.1885374 49.9214871,24.6691308 C49.9166124,24.6882898 49.8337431,20.1836366 49.7996204,18.9909898 C49.7654978,17.8031328 48.415215,15.8058086 47.186799,15.1639826 Z" id="path-3"></path>
        <path d="M40.0795346,1.81348703 C42.2682601,1.81348703 44.0426388,3.55695466 44.0426388,5.70755072 C44.0426388,7.85814678 42.2682601,9.6016144 40.0795346,9.6016144 C37.8908092,9.6016144 36.1164304,7.85814678 36.1164304,5.70755072 C36.1164304,3.55695466 37.8908092,1.81348703 40.0795346,1.81348703 L40.0795346,1.81348703 Z" id="path-4"></path>
        <path d="M34.410297,5.70755072 C34.410297,8.78735755 36.9499985,11.2828153 40.0844093,11.2828153 C43.2188201,11.2828153 45.7585216,8.78735755 45.7585216,5.70755072 C45.7585216,2.62774389 43.2188201,0.132286108 40.0844093,0.132286108 C36.9499985,0.132286108 34.410297,2.62774389 34.410297,5.70755072 L34.410297,5.70755072 Z" id="path-5"></path>
        <path d="M28.9360461,20.4518624 C28.9360461,20.4518624 26.3232246,21.3379655 24.8754486,21.3140168 C23.4325472,21.3427552 21.0878324,20.4518624 21.0878324,20.4518624 C19.206211,20.7536164 18.3385203,20.8829396 16.1351708,22.0276889 C14.6240241,22.8132073 12.9666373,26.3072241 12.92764,27.7680967 C12.8886427,29.2289693 12.7814,33.4870537 12.7814,33.4870537 C15.9324646,36.57644 24.8803232,36.57644 24.8803232,36.57644 C24.8803232,36.57644 32.3229472,36.57644 36.9792465,33.4870537 C36.9792465,33.4870537 36.8768785,29.2289693 36.8330065,27.7680967 C36.7842598,26.3072241 35.1219984,22.8132073 33.6157263,22.0276889 C31.4123769,20.8829396 30.8176675,20.7488267 28.9360461,20.4518624 Z" id="path-6"></path>
        <path d="M12.8553372,30.5684219 C12.8174433,32.0559518 12.7814,33.4870537 12.7814,33.4870537 C15.9324646,36.57644 24.8803232,36.57644 24.8803232,36.57644 C24.8803232,36.57644 32.3229472,36.57644 36.9792465,33.4870537 C36.9792465,33.4870537 36.9453402,32.0766928 36.9081919,30.6008688" id="path-7"></path>
        <path d="M24.8754486,7.31570492 C27.400526,7.31570492 29.4478861,9.32739834 29.4478861,11.8084869 C29.4478861,14.2895754 27.400526,16.3012688 24.8754486,16.3012688 C22.3503711,16.3012688 20.303011,14.2895754 20.303011,11.8084869 C20.303011,9.32739834 22.3503711,7.31570492 24.8754486,7.31570492 L24.8754486,7.31570492 Z" id="path-8"></path>
        <path d="M24.8803232,17.7010753 C28.7313101,17.7010753 31.8559716,14.6356377 31.8559716,10.8469484 C31.8559716,7.05825916 28.7361848,3.99282157 24.8803232,3.99282157 C21.0244617,3.99282157 17.9046749,7.0630489 17.9046749,10.8469484 C17.9046749,14.6308479 21.0244617,17.7010753 24.8803232,17.7010753 Z" id="path-9"></path>
    </defs>
    <g id="首页" stroke="none" stroke-width="1" fill="none" fill-rule="evenodd">
        <g id="官网/首页_Phone" transform="translate(-523.000000, -1079.000000)">
            <g id="功能简介" transform="translate(0.000000, 900.000000)">
                <g id="Group-10-Copy" transform="translate(375.000000, 179.000000)">
                    <g id="Group-13" transform="translate(148.000000, 0.000000)">
                        <circle id="Oval-2" fill="#2A75ED" opacity="0.05" cx="40" cy="40" r="40"></circle>
                        <g id="用户管理" transform="translate(15.000000, 16.000000)">
                            <rect id="Rectangle-7" fill="#FFFFFF" opacity="0" x="0" y="0" width="50" height="50"></rect>
                            <g id="Group-2" stroke-width="1" transform="translate(0.000000, 7.291667)">
                                <g id="Path">
                                    <use fill="#FFFFFF" fill-rule="evenodd" xlink:href="#path-1"></use>
                                    <path stroke="#2A75ED" stroke-width="2" d="M18.0220491,19.2649523 C17.6711949,18.9618878 17.1009309,18.4799323 16.9703353,18.3651695 C16.0058571,17.5176206 15.365641,16.7959385 15.0143222,16.0043679 C14.4679485,15.7989005 14.0035964,15.6971156 13.0145964,15.5376699 C12.9895587,15.5463914 12.9632293,15.5554945 12.9356623,15.5649484 C12.6814646,15.6521239 12.4081429,15.7391572 12.1247467,15.8206592 C11.7811738,15.9194675 11.4455109,16.0035192 11.1240667,16.0682392 C10.6398361,16.1657347 10.2038176,16.2166575 9.85745903,16.2087658 C9.43545562,16.2173685 8.938214,16.156117 8.36785635,16.0405966 C8.07601069,15.9814861 7.77105931,15.9091403 7.45802668,15.8264457 C7.15349343,15.7459963 6.85733697,15.6600714 6.58029421,15.5740566 C6.53639199,15.5604261 6.49537318,15.5475497 6.45743846,15.5355249 C5.06008312,15.7652154 4.67122505,15.9059837 3.19289733,16.679637 C2.28029102,17.1564579 1.14343729,18.8279041 1.11657966,19.6490442 C1.10522258,20.0444 1.08760487,20.8383875 1.06549862,21.9280205 C1.06129973,22.135592 1.06129973,22.135592 1.05712075,22.3443952 C1.04407699,22.99772 1.03053919,23.6977937 1.01729405,24.3978791 C1.01399312,24.5723531 1.01101364,24.7307269 1.00841212,24.8696434 C1.81425224,25.5047795 3.05270685,25.9961012 4.60719051,26.3315382 C5.65270808,26.5571472 6.78064346,26.7004266 7.9228697,26.7758465 C8.67223199,26.825326 9.30832461,26.8390195 9.76562744,26.8333618 C9.8127926,26.8326661 9.8127926,26.8326661 9.84195247,26.8322466 C9.96774122,26.8322466 10.1999733,26.8293673 10.5103979,26.8206649 C10.7388961,26.8142593 10.9717648,26.8055972 11.2065348,26.7944419 C11.259683,24.8013241 13.2131939,21.0840374 14.9471376,20.1797889 C15.1329289,20.0830892 15.3239111,19.9948861 15.5204427,19.9143176 C15.990355,19.7216761 16.4762264,19.5776715 17.0193979,19.4575616 C17.2229608,19.4125483 17.4255083,19.3726506 17.6706833,19.3279682 C17.7131832,19.3202227 17.879823,19.2904939 18.0220491,19.2649523 Z"></path>
                                </g>
                                <g id="Path">
                                    <use fill="#FFFFFF" fill-rule="evenodd" xlink:href="#path-2"></use>
                                    <path stroke="#2A75ED" stroke-width="2" d="M9.84077894,11.1185331 C12.4268005,11.1185331 14.5148912,9.06681866 14.5148912,6.54326853 C14.5148912,4.01971839 12.4268005,1.96800391 9.84077894,1.96800391 C7.25475738,1.96800391 5.16666667,4.01971839 5.16666541,6.54168574 C5.1706612,9.06621745 7.25936379,11.1185331 9.84077894,11.1185331 Z"></path>
                                </g>
                                <g id="Path">
                                    <use fill="#FFFFFF" fill-rule="evenodd" xlink:href="#path-3"></use>
                                    <path stroke="#2A75ED" stroke-width="2" d="M38.7150365,26.1507367 C38.416524,26.1365535 38.1149371,26.1183396 37.8153519,26.0956086 L37.7396945,27.0927424 L38.7393164,27.0652466 C38.735722,26.9345677 38.7327282,26.8080801 38.7272279,26.5685525 C38.7227913,26.3811019 38.7193623,26.2598247 38.7150365,26.1507367 Z M31.8479914,18.6498336 C31.8038371,18.642341 31.7682132,18.6362641 31.7485421,18.6328344 C31.3979558,18.5717073 31.2099397,18.5256839 31.1303393,18.4883754 C31.2303315,18.5352415 31.3740728,18.7181123 31.3740728,18.9526719 C31.3740728,19.0849811 31.3512383,19.1388464 31.3474991,19.1439933 C31.4012308,19.0700336 31.5025824,18.9619009 31.652461,18.8226723 C31.6925855,18.785399 31.7617647,18.7244867 31.8479914,18.6498336 Z M34.9004648,15.3778565 C34.9714004,15.218887 35.0307206,15.0567732 35.0787858,14.8898187 L34.5084901,15.5336913 C34.6444743,15.4759795 34.7741724,15.4244067 34.9004648,15.3778565 Z M36.9033294,14.9087873 C36.9702373,14.8979344 37.0526546,14.8846015 37.1583624,14.8675096 L36.6439674,14.8152813 C36.6994171,14.8363223 36.7876441,14.8685012 36.9033294,14.9087873 Z M43.4591303,14.9061988 C43.5660046,14.8723212 43.6484032,14.8452016 43.7018388,14.8270176 L43.2220875,14.8678342 C43.3043048,14.8809553 43.3832047,14.8937042 43.4591303,14.9061988 Z M48.909203,24.1624305 C48.0666884,24.7100665 46.9528664,25.1515796 45.6327105,25.4855791 C44.4229669,25.7916444 43.1160658,25.990032 41.8075145,26.1003866 C41.3484515,26.1391009 40.9226596,26.1639606 40.5417195,26.1777289 C40.3163515,26.1858743 40.1584638,26.1885374 40.0795346,26.1885374 L40.0795346,27.1885374 C39.9537459,26.1885374 39.7215138,26.185658 39.4110892,26.1769557 C39.1826183,26.1705508 38.949778,26.16189 38.7150365,26.1507367 C38.7148571,26.1462133 38.7146762,26.1417108 38.7144936,26.1372254 C38.6620214,24.1679011 36.7046042,20.452397 34.9690146,19.5502096 C34.7825967,19.4531835 34.5904702,19.3648995 34.3927232,19.2846911 C33.9331073,19.0982657 33.4579014,18.960076 32.9284504,18.8467536 C32.7281334,18.8038782 32.5276771,18.7659838 32.2896239,18.7247224 C32.2156849,18.7119066 31.9885907,18.6736923 31.8479914,18.6498336 C32.2043066,18.3413443 32.8517254,17.7982176 32.9429923,17.7188957 C33.9107164,16.8778271 34.5485388,16.1665368 34.9004648,15.3778565 C35.1306163,15.2930248 35.3494574,15.2248735 35.5744207,15.1666466 C35.8470204,15.0960901 36.1330905,15.0381732 36.5368437,14.9694292 C36.65084,14.9500198 36.7168405,14.939037 36.9033294,14.9087873 C36.927974,14.9173695 36.9538647,14.9263197 36.9809502,14.9356085 C37.2351478,15.0227839 37.5084696,15.1098173 37.7918658,15.1913193 C38.1354386,15.2901275 38.4711015,15.3741792 38.7925457,15.4388992 C39.2767763,15.5363947 39.7127949,15.5873175 40.0999159,15.5794258 C40.4811568,15.5880286 40.9783984,15.526777 41.5487561,15.4112566 C41.8406017,15.3521461 42.1455531,15.2798003 42.4585858,15.1971057 C42.763119,15.1166564 43.0592755,15.0307314 43.3363182,14.9447166 C43.3802036,14.9310914 43.4212077,14.9182196 43.4591303,14.9061988 C44.8435612,15.1340258 45.2390632,15.2772991 46.7249854,16.0509596 L46.7237151,16.0502971 C47.6365328,16.5272284 48.7765622,18.2026597 48.8000328,19.0197042 C48.8115765,19.4231783 48.8292355,20.2209188 48.8536245,21.4116001 C48.8566412,21.5590896 48.8566412,21.5590896 48.8596511,21.7070239 C48.86859,22.1468699 48.8968831,23.5595226 48.9010229,23.7636238 C48.904662,23.9420079 48.9072037,24.0660876 48.909203,24.1624305 Z"></path>
                                </g>
                                <g id="Path">
                                    <use fill="#FFFFFF" fill-rule="evenodd" xlink:href="#path-4"></use>
                                    <path stroke="#2A75ED" stroke-width="2" d="M40.0795346,2.81348703 C38.4391985,2.81348703 37.1164304,4.11321135 37.1164304,5.70755072 C37.1164304,7.30189009 38.4391985,8.6016144 40.0795346,8.6016144 C41.7198708,8.6016144 43.0426388,7.30189009 43.0426388,5.70755072 C43.0426388,4.11321135 41.7198708,2.81348703 40.0795346,2.81348703 Z"></path>
                                </g>
                                <g id="Path">
                                    <use fill="#FFFFFF" fill-rule="evenodd" xlink:href="#path-5"></use>
                                    <path stroke="#2A75ED" stroke-width="2" d="M35.410297,5.70755072 C35.410297,8.23110085 37.4983877,10.2828153 40.0844093,10.2828153 C42.6704308,10.2828153 44.7585216,8.23110085 44.7585216,5.70755072 C44.7585216,3.18400058 42.6704308,1.13228611 40.0844093,1.13228611 C37.4983877,1.13228611 35.410297,3.18400058 35.410297,5.70755072 Z"></path>
                                </g>
                                <g id="Path">
                                    <use fill="#FFFFFF" fill-rule="evenodd" xlink:href="#path-6"></use>
                                    <path stroke="#2A75ED" stroke-width="2" d="M29.016918,21.4774475 C28.9559962,21.4968657 28.887299,21.5184712 28.8115287,21.5419262 C28.4721718,21.6469756 28.1094374,21.7519371 27.736801,21.8501538 C27.3573783,21.9501592 26.9880826,22.0376858 26.6352562,22.1092501 C25.951146,22.2480091 25.356502,22.322111 24.8953618,22.3138185 C24.4382257,22.3229233 23.9170177,22.2616261 23.3356393,22.1440507 C22.9482741,22.0657117 22.5427984,21.9639015 22.1273177,21.8441871 C21.7825801,21.7448562 21.44984,21.6387227 21.1404265,21.5324478 C21.0863832,21.5138855 21.0362924,21.4964487 20.9904367,21.4802977 C20.7368065,21.52108 20.640299,21.536944 20.4920275,21.5620119 C19.9850857,21.6477193 19.625083,21.720354 19.2803135,21.809679 C18.5030001,22.0110703 17.7391982,22.3212296 16.5963951,22.9149725 C15.5621816,23.4525733 13.962121,26.4897551 13.9272839,27.7947817 C13.9136067,28.3071424 13.8907073,29.1942835 13.8611759,30.3521049 L13.8596857,30.4105399 C13.8423856,31.0890257 13.8239402,31.8159914 13.8055553,32.5429593 C13.7998363,32.7693304 13.7957869,32.9296178 13.7927981,33.0479354 C14.7898514,33.8461086 16.4179551,34.47208 18.4948978,34.9072533 C19.8869573,35.1989258 21.3879967,35.3876297 22.8904648,35.492565 C23.4173167,35.5293614 23.9061495,35.5529975 24.3438712,35.5660995 C24.6038625,35.5738817 24.7870135,35.57644 24.8803232,36.57644 L24.8803232,35.57644 C24.9895224,35.57644 25.2060832,35.5720795 25.5144358,35.5587753 C26.0347327,35.5363264 26.6160706,35.4958084 27.2427685,35.4327159 C29.0302311,35.2527638 30.8158508,34.9291839 32.4715616,34.4291198 C33.7893597,34.0311133 34.9655315,33.5372676 35.9657777,32.9429165 C35.9628161,32.821203 35.9595434,32.6870116 35.9560002,32.5421246 C35.9382274,31.8153472 35.9202144,31.0885791 35.9030672,30.4103233 C35.8998663,30.2838249 35.8998663,30.2838249 35.8966599,30.1575815 C35.8696253,29.0942295 35.8479,28.2790409 35.8335627,27.8014463 C35.7898242,26.4906604 34.1841322,23.4519239 33.1546882,22.9150693 C31.2800995,21.9411274 30.7745108,21.7619467 29.016918,21.4774475 Z"></path>
                                </g>
                                <g id="Path">
                                    <use fill="#E2EDFF" fill-rule="evenodd" xlink:href="#path-7"></use>
                                    <path stroke="#2A75ED" stroke-width="2" d="M13.8302058,31.5697379 C13.8227841,31.8623536 13.8145457,32.1877077 13.8038389,32.6108378 C13.7990305,32.8011915 13.795489,32.9413967 13.792798,33.0479353 C14.7898513,33.8461086 16.417955,34.47208 18.4948978,34.9072533 C19.8869573,35.1989258 21.3879967,35.3876297 22.8904648,35.492565 C23.4173167,35.5293614 23.9061495,35.5529975 24.3438712,35.5660995 C24.6038625,35.5738817 24.7870135,35.57644 24.8803232,35.57644 C24.9895224,35.57644 25.2060832,35.5720795 25.5144358,35.5587753 C26.0347327,35.5363264 26.6160706,35.4958084 27.2427685,35.4327159 C29.0302311,35.2527638 30.8158508,34.9291839 32.4715616,34.4291198 C33.7893595,34.0311134 34.965531,33.5372678 35.9657771,32.9429168 C35.9633711,32.8440372 35.960754,32.7366779 35.9579481,32.6218171 C35.9496304,32.281336 35.9412085,31.938751 35.9328076,31.5995539 L13.8302058,31.5697379 Z"></path>
                                </g>
                                <g id="Path">
                                    <use fill="#FFFFFF" fill-rule="evenodd" xlink:href="#path-8"></use>
                                    <path stroke="#2A75ED" stroke-width="2" d="M24.8754486,8.31570492 C22.8987604,8.31570492 21.303011,9.88365503 21.303011,11.8084869 C21.303011,13.7333187 22.8987604,15.3012688 24.8754486,15.3012688 C26.8521368,15.3012688 28.4478861,13.7333187 28.4478861,11.8084869 C28.4478861,9.88365503 26.8521368,8.31570492 24.8754486,8.31570492 Z"></path>
                                </g>
                                <g id="Path">
                                    <use fill="#FFFFFF" fill-rule="evenodd" xlink:href="#path-9"></use>
                                    <path stroke="#2A75ED" stroke-width="2" d="M24.8803232,16.7010753 C28.1847109,16.7010753 30.8559716,14.0776169 30.8559716,10.8469484 C30.8559716,7.61451585 28.1877955,4.99282157 24.8803232,4.99282157 C21.5746403,4.99282157 18.9046749,7.61754071 18.9046749,10.8469484 C18.9046749,14.0763561 21.5746403,16.7010753 24.8803232,16.7010753 Z"></path>
                                </g>
                            </g>
                        </g>
                    </g>
                </g>
            </g>
        </g>
    </g>
</svg>