<?xml version="1.0" encoding="UTF-8"?>
<svg width="80px" height="80px" viewBox="0 0 80 80" version="1.1" xmlns="http://www.w3.org/2000/svg" xmlns:xlink="http://www.w3.org/1999/xlink">
    <!-- Generator: Sketch 46.2 (44496) - http://www.bohemiancoding.com/sketch -->
    <title>Group 12</title>
    <desc>Created with Sketch.</desc>
    <defs>
        <rect id="path-1" x="0" y="6.25" width="50" height="39.5833333" rx="4"></rect>
        <path d="M7.02354707e-20,10.1586559 C7.81343754e-20,6.84937161 2.68628881,4.16666667 6.00933018,4.16666667 L13.8299852,4.16666667 C14.9376398,4.16666667 16.3385944,4.90816707 16.9606575,5.82514309 L19.512453,9.58671492 C19.8234043,10.0450846 20.5217198,10.4166667 21.0711225,10.4166667 L43.9982951,10.4166667 C47.3129452,10.4166667 50,13.1077421 50,16.4246214 L50,39.8253786 C50,43.1434804 47.3117828,45.8333333 43.9936839,45.8333333 L6.00631606,45.8333333 C2.6891193,45.8333333 -8.50549148e-21,43.1475621 -6.13905791e-22,39.8413441 L7.02354707e-20,10.1586559 Z" id="path-2"></path>
        <path d="M50,39.5713806 L50,39.589344 C50,43.0378041 47.2046445,45.8333333 43.7433473,45.8333333 L6.25665266,45.8333333 C2.80119881,45.8333333 0,43.0372663 0,39.5876092 L0,39.583079" id="path-3"></path>
        <circle id="path-4" cx="25" cy="26.0416667" r="9.375"></circle>
    </defs>
    <g id="首页" stroke="none" stroke-width="1" fill="none" fill-rule="evenodd">
        <g id="官网/首页_Phone" transform="translate(-148.000000, -1079.000000)">
            <g id="功能简介" transform="translate(0.000000, 900.000000)">
                <g id="Group-10" transform="translate(0.000000, 179.000000)">
                    <g id="Group-12" transform="translate(148.000000, 0.000000)">
                        <circle id="Oval-2" fill="#2A75ED" opacity="0.05" cx="40" cy="40" r="40"></circle>
                        <g id="内容付费" transform="translate(15.000000, 16.000000)">
                            <rect id="Rectangle-7" x="0" y="0" width="50" height="50"></rect>
                            <g id="Rectangle-6">
                                <use fill="#D9E3F4" fill-rule="evenodd" xlink:href="#path-1"></use>
                                <rect stroke="#2A75ED" stroke-width="2" x="1" y="7.25" width="48" height="37.5833333" rx="4"></rect>
                            </g>
                            <g id="Rectangle-6">
                                <use fill="#FFFFFF" fill-rule="evenodd" xlink:href="#path-2"></use>
                                <path stroke="#2A75ED" stroke-width="2" d="M1,10.1586559 L1,39.8413441 C1,42.5958803 3.24201025,44.8333333 6.00631606,44.8333333 L43.9936839,44.8333333 C46.7591022,44.8333333 49,42.5915916 49,39.8253786 L49,16.4246214 C49,13.6593404 46.7599741,11.4166667 43.9982951,11.4166667 L21.0711225,11.4166667 C20.1893687,11.4166667 19.1814793,10.8801043 18.6849057,10.1481109 L16.1331102,6.3865391 C15.6974531,5.744342 14.6066888,5.16666667 13.8299852,5.16666667 L6.00933018,5.16666667 C3.23947859,5.16666667 1,7.40075624 1,10.1586559 Z"></path>
                            </g>
                            <g id="Rectangle-6">
                                <use fill="#E6F0FF" fill-rule="evenodd" xlink:href="#path-3"></use>
                                <path stroke="#2A75ED" stroke-width="2" d="M48.9081654,40.5716361 L1.09447316,40.582823 C1.5603706,43.0038874 3.69407004,44.8333333 6.25665266,44.8333333 L43.7433473,44.8333333 C46.3137901,44.8333333 48.4480854,42.9994013 48.9081654,40.5716361 Z"></path>
                            </g>
                            <g id="Oval-6">
                                <use fill="#BAD4FF" fill-rule="evenodd" xlink:href="#path-4"></use>
                                <circle stroke="#2A75ED" stroke-width="1" cx="25" cy="26.0416667" r="8.875"></circle>
                            </g>
                            <path d="M24.1915894,31.25 L25.8333333,31.25 L25.8333333,28.6468797 L28.7612613,28.6468797 L28.7612613,27.7790229 L25.8333333,27.7790229 L25.8333333,26.911166 L28.7612613,26.911166 L28.7612613,26.0416667 L26.5840841,26.0416667 L29.1666667,20.8333333 L26.9594595,20.8333333 L25.9684685,23.1738326 C25.6681682,23.8817614 25.3678679,24.6041378 25.0675676,25.3409616 L24.9924925,25.3409616 C24.6771772,24.6185853 24.3918919,23.896209 24.1066066,23.1738326 L23.1156156,20.8333333 L20.8333333,20.8333333 L23.4009009,26.0416667 L21.2537538,26.0416667 L21.2537538,26.911166 L24.1915894,26.911166 L24.1915894,27.7790229 L21.2537538,27.7790229 L21.2537538,28.6468797 L24.1915894,28.6468797 L24.1915894,31.25 Z" id="¥" fill="#FFFFFF" fill-rule="evenodd"></path>
                        </g>
                    </g>
                </g>
            </g>
        </g>
    </g>
</svg>