<?xml version="1.0" encoding="UTF-8"?>
<svg width="80px" height="80px" viewBox="0 0 80 80" version="1.1" xmlns="http://www.w3.org/2000/svg" xmlns:xlink="http://www.w3.org/1999/xlink">
    <!-- Generator: Sketch 46.2 (44496) - http://www.bohemiancoding.com/sketch -->
    <title>Group 8</title>
    <desc>Created with Sketch.</desc>
    <defs>
        <rect id="path-1" x="0" y="0" width="22.9166667" height="22.9166667" rx="4"></rect>
        <rect id="path-2" x="27.0833333" y="0" width="22.9166667" height="22.9166667" rx="4"></rect>
        <rect id="path-3" x="0" y="27.0833333" width="22.9166667" height="22.9166667" rx="4"></rect>
        <rect id="path-4" x="27.0833333" y="27.0833333" width="22.9166667" height="22.9166667" rx="4"></rect>
    </defs>
    <g id="首页" stroke="none" stroke-width="1" fill="none" fill-rule="evenodd">
        <g id="官网/首页_Phone" transform="translate(-523.000000, -1559.000000)">
            <g id="功能简介" transform="translate(0.000000, 900.000000)">
                <g id="Group-10-Copy-5" transform="translate(375.000000, 659.000000)">
                    <g id="Group-8" transform="translate(148.000000, 0.000000)">
                        <circle id="Oval-2" fill="#2A75ED" opacity="0.05" cx="40" cy="40" r="40"></circle>
                        <g id="more" transform="translate(15.000000, 16.000000)">
                            <rect id="Rectangle-7" x="0" y="0" width="50" height="50"></rect>
                            <g id="Rectangle-6">
                                <use fill="#FFFFFF" fill-rule="evenodd" xlink:href="#path-1"></use>
                                <rect stroke="#2A75ED" stroke-width="2" x="1" y="1" width="20.9166667" height="20.9166667" rx="4"></rect>
                            </g>
                            <g id="Rectangle-6-Copy-2">
                                <use fill="#FFFFFF" fill-rule="evenodd" xlink:href="#path-2"></use>
                                <rect stroke="#2A75ED" stroke-width="2" x="28.0833333" y="1" width="20.9166667" height="20.9166667" rx="4"></rect>
                            </g>
                            <g id="Rectangle-6-Copy">
                                <use fill="#FFFFFF" fill-rule="evenodd" xlink:href="#path-3"></use>
                                <rect stroke="#2A75ED" stroke-width="2" x="1" y="28.0833333" width="20.9166667" height="20.9166667" rx="4"></rect>
                            </g>
                            <g id="Rectangle-6-Copy-3">
                                <use fill="#FFFFFF" fill-rule="evenodd" xlink:href="#path-4"></use>
                                <rect stroke="#2A75ED" stroke-width="2" x="28.0833333" y="28.0833333" width="20.9166667" height="20.9166667" rx="4"></rect>
                            </g>
                            <path d="M31.1666667,29.1666667 L42.7916667,29.1666667 L42.7916667,29.1666667 C43.8962362,29.1666667 44.7916667,30.0620972 44.7916667,31.1666667 L44.7916667,45.9166667 L44.7916667,45.9166667 C44.7916667,47.0212362 43.8962362,47.9166667 42.7916667,47.9166667 L31.1666667,47.9166667 L31.1666667,47.9166667 C30.0620972,47.9166667 29.1666667,47.0212362 29.1666667,45.9166667 L29.1666667,31.1666667 L29.1666667,31.1666667 C29.1666667,30.0620972 30.0620972,29.1666667 31.1666667,29.1666667 Z" id="Rectangle-6-Copy-2" fill="#E6F0FF" fill-rule="evenodd"></path>
                            <path d="M4.08333333,29.1666667 L15.7083333,29.1666667 L15.7083333,29.1666667 C16.8129028,29.1666667 17.7083333,30.0620972 17.7083333,31.1666667 L17.7083333,45.9166667 L17.7083333,45.9166667 C17.7083333,47.0212362 16.8129028,47.9166667 15.7083333,47.9166667 L4.08333333,47.9166667 L4.08333333,47.9166667 C2.97876383,47.9166667 2.08333333,47.0212362 2.08333333,45.9166667 L2.08333333,31.1666667 L2.08333333,31.1666667 C2.08333333,30.0620972 2.97876383,29.1666667 4.08333333,29.1666667 Z" id="Rectangle-6-Copy-5" fill="#E6F0FF" fill-rule="evenodd"></path>
                            <path d="M4.08333333,2.08333333 L15.7083333,2.08333333 L15.7083333,2.08333333 C16.8129028,2.08333333 17.7083333,2.97876383 17.7083333,4.08333333 L17.7083333,18.8333333 L17.7083333,18.8333333 C17.7083333,19.9379028 16.8129028,20.8333333 15.7083333,20.8333333 L4.08333333,20.8333333 L4.08333333,20.8333333 C2.97876383,20.8333333 2.08333333,19.9379028 2.08333333,18.8333333 L2.08333333,4.08333333 L2.08333333,4.08333333 C2.08333333,2.97876383 2.97876383,2.08333333 4.08333333,2.08333333 Z" id="Rectangle-6-Copy-6" fill="#E6F0FF" fill-rule="evenodd"></path>
                        </g>
                    </g>
                </g>
            </g>
        </g>
    </g>
</svg>