<svg xmlns="http://www.w3.org/2000/svg" width="232" height="70" viewBox="0 0 232 70">
    <g fill="none" fill-rule="evenodd">
        <path fill="#2A75ED" d="M34.016 69.031c18.787 0 34.016-15.229 34.016-34.016C68.032 16.23 52.802 1 34.016 1 15.229 1 0 16.23 0 35.015c0 18.787 15.229 34.016 34.016 34.016"/>
        <path fill="#FFF" d="M53.082 19.402h-.805c-.972 0-1.79-.773-1.781-1.733.026-4.42-6.746-4.652-6.746.165v16.05c0 2.41-1.967 4.364-4.394 4.364H18.878c-3.527 0-5.248-1.28-6.125-2.648-.156-.238-.528-.122-.528.161v2.486c0 9.764 8.05 17.657 17.922 17.495 9.662-.158 17.318-8.188 17.318-17.781V24.886c0-.674.55-1.221 1.227-1.221h4.326c3.828 0 3.588-4.262.064-4.262"/>
        <path fill="#353535" d="M126.382 46.75l-3.195 2.247c-2.247-7.09-5.293-14.928-9.137-23.565l3.245-2.047c3.944 8.936 6.99 16.725 9.087 23.365zM93.231 57.484l-.849-3.744c2.496.199 4.893.3 7.139.3 1.848 0 2.796-.949 2.796-2.797V13h3.695v39.192c0 3.496-1.748 5.292-5.143 5.292h-7.638zm-.7-31.504c-2.396 9.986-5.541 17.575-9.436 22.767L80 46.001c3.994-5.292 6.94-12.432 8.937-21.418l3.594 1.397zM170.596 27.178l-2.297 1.598c-.898-1.648-2.146-3.446-3.694-5.393l2.147-1.397c1.647 1.997 2.946 3.694 3.844 5.192zm-2.846-14.679c-.349 1.598-.848 3.046-1.548 4.394h10.385c-.349 8.588-.848 13.63-1.548 15.178-.749 1.547-2.146 2.346-4.193 2.346h-2.796l-.999-2.996c1.498.05 2.746.101 3.795.101.798 0 1.348-.449 1.647-1.299.3-.899.499-4.293.699-10.085h-10.385v16.676h15.877c-.05 10.684-.749 16.875-2.047 18.572-1.248 1.598-3.345 2.396-6.291 2.396h-2.995l-.999-3.344c1.598.05 2.946.099 4.044.099 1.698 0 2.896-.499 3.595-1.498.799-1.147 1.248-5.441 1.248-12.881h-15.827V16.893h3.295c.6-1.598 1.099-3.195 1.399-4.893l3.644.499zm-9.736 36.148h13.63v-3.296h-13.63v3.296zm-1.348-26.412l-2.546.949c-.899-2.746-1.947-5.393-3.245-7.939l2.596-.749a69.444 69.444 0 0 1 3.195 7.739zm-17.624 3.894v-6.14a43.194 43.194 0 0 1-3.345 1.248L134.2 18.54c3.994-1.248 6.989-2.845 9.036-4.842l1.947 2.545a18.677 18.677 0 0 1-2.945 2.148v7.738h4.443c-.1-3.994-.1-8.388-.1-13.18h2.846c0 4.892 0 9.286.1 13.18h6.54v3.245h-6.44c.15 5.792.399 10.385.799 13.88a69.508 69.508 0 0 0 3.694-10.734l2.447.999c-1.548 5.542-3.346 10.335-5.443 14.329l.1.349c.899 3.844 1.897 5.891 3.046 6.091.649-.049 1.198-1.698 1.698-4.893l2.695 1.847c-.749 4.294-2.146 6.441-4.193 6.441-1.298 0-2.497-.849-3.545-2.546-.699-1.148-1.248-2.446-1.747-3.845-1.099 1.698-2.247 3.295-3.445 4.694l-2.048-1.848c1.648-1.947 3.146-4.094 4.544-6.49l-.3-1.598c-.599-3.245-.948-8.787-1.148-16.676h-4.543v9.737c.998-.5 1.997-.999 2.895-1.498v3.344a52.417 52.417 0 0 1-2.895 1.548V53.19c0 2.995-1.248 4.493-3.645 4.493h-3.545l-.749-3.245c1.099.149 2.147.25 3.146.25 1.048 0 1.597-.799 1.597-2.397v-8.338a103.221 103.221 0 0 1-4.144 1.598L134 42.306c1.747-.6 3.445-1.198 5.042-1.798V29.374h-4.543v-3.245h4.543zM217.804 37.813h8.388v-4.395h-8.388v4.395zm0-7.39h8.388V25.93h-8.388v4.493zm-11.683 7.39h8.338v-4.395h-8.338v4.395zm0-7.39h8.338V25.93h-8.338v4.493zm10.485-9.886c2.596-1.347 4.993-2.845 7.19-4.543h-22.168v-3.045h27.01v2.596a54.602 54.602 0 0 1-9.735 6.741l.798.648h9.886v22.317c0 2.546-1.398 3.845-4.194 3.845h-4.144l-.799-3.046 3.945.15c1.198 0 1.797-.599 1.797-1.698v-3.744h-8.388v8.587h-3.345v-8.587h-8.338v8.737h-3.395V22.934h12.482c-1.897-1.348-4.094-2.695-6.54-3.994l2.196-2.147c2.098 1.248 4.044 2.496 5.742 3.744zm-17.325-.749l-2.546 2.498c-2.097-2.498-4.942-5.143-8.587-7.939L190.594 12c3.445 2.596 6.341 5.193 8.687 7.788zm11.583 36.198c-3.245-.05-5.891-.35-7.888-.899-1.997-.599-3.795-1.847-5.342-3.644-.699-.849-1.348-1.249-1.947-1.249-1.199 0-3.196 2.297-5.942 6.89l-2.696-2.446c2.646-4.194 4.993-6.74 7.04-7.64V31.821H187v-3.295h10.434v18.673c.4.299.799.649 1.248 1.148 1.199 1.448 2.496 2.496 3.895 3.146 1.597.699 3.844 1.097 6.84 1.198 2.646.05 5.941.099 9.885.099 2.297 0 4.693-.049 7.14-.099 2.396-.05 4.243-.101 5.542-.2l-.85 3.594h-11.333c-2.746 0-5.741-.049-8.937-.099z"/>
    </g>
</svg>
